<svg width="122" height="40" viewBox="0 0 122 40" fill="none" xmlns="http://www.w3.org/2000/svg">
<path d="M5.84 32.64C5.136 32.64 4.48533 32.4693 3.888 32.128C3.312 31.7867 2.85333 31.328 2.512 30.752C2.17067 30.1547 2 29.504 2 28.8V27.904H4.592V28.8C4.592 29.1413 4.70933 29.44 4.944 29.696C5.2 29.9307 5.49867 30.048 5.84 30.048H21.2C21.5413 30.048 21.8293 29.9307 22.064 29.696C22.32 29.44 22.448 29.1413 22.448 28.8V23.648C22.448 23.3067 22.32 23.0187 22.064 22.784C21.8293 22.5493 21.5413 22.432 21.2 22.432H5.84C5.136 22.432 4.48533 22.2613 3.888 21.92C3.312 21.5573 2.85333 21.088 2.512 20.512C2.17067 19.936 2 19.296 2 18.592V13.44C2 12.736 2.17067 12.096 2.512 11.52C2.85333 10.9227 3.312 10.4533 3.888 10.112C4.48533 9.77067 5.136 9.6 5.84 9.6H21.2C21.904 9.6 22.544 9.77067 23.12 10.112C23.7173 10.4533 24.1867 10.9227 24.528 11.52C24.8693 12.096 25.04 12.736 25.04 13.44V14.336H22.448V13.44C22.448 13.0987 22.32 12.8107 22.064 12.576C21.8293 12.32 21.5413 12.192 21.2 12.192H5.84C5.49867 12.192 5.2 12.32 4.944 12.576C4.70933 12.8107 4.592 13.0987 4.592 13.44V18.592C4.592 18.9333 4.70933 19.2213 4.944 19.456C5.2 19.6907 5.49867 19.808 5.84 19.808H21.2C21.904 19.808 22.544 19.9893 23.12 20.352C23.7173 20.6933 24.1867 21.152 24.528 21.728C24.8693 22.304 25.04 22.944 25.04 23.648V28.8C25.04 29.504 24.8693 30.1547 24.528 30.752C24.1867 31.328 23.7173 31.7867 23.12 32.128C22.544 32.4693 21.904 32.64 21.2 32.64H5.84Z" fill="#0A0909"/>
<path d="M32.1845 32.64C31.4805 32.64 30.8298 32.4693 30.2325 32.128C29.6565 31.7653 29.1872 31.296 28.8245 30.72C28.4832 30.1227 28.3125 29.472 28.3125 28.768V17.952C28.3125 17.248 28.4832 16.608 28.8245 16.032C29.1872 15.4347 29.6565 14.9653 30.2325 14.624C30.8298 14.2613 31.4805 14.08 32.1845 14.08H43.3205C44.0458 14.08 44.6965 14.2613 45.2725 14.624C45.8698 14.9653 46.3392 15.4347 46.6805 16.032C47.0432 16.608 47.2245 17.248 47.2245 17.952V28.768C47.2245 29.472 47.0432 30.1227 46.6805 30.72C46.3392 31.296 45.8698 31.7653 45.2725 32.128C44.6965 32.4693 44.0458 32.64 43.3205 32.64H32.1845ZM32.1845 30.016H43.3205C43.6618 30.016 43.9498 29.8987 44.1845 29.664C44.4405 29.408 44.5685 29.1093 44.5685 28.768V17.952C44.5685 17.6107 44.4405 17.3227 44.1845 17.088C43.9498 16.832 43.6618 16.704 43.3205 16.704H32.1845C31.8432 16.704 31.5445 16.832 31.2885 17.088C31.0538 17.3227 30.9365 17.6107 30.9365 17.952V28.768C30.9365 29.1093 31.0538 29.408 31.2885 29.664C31.5445 29.8987 31.8432 30.016 32.1845 30.016Z" fill="#0A0909"/>
<path d="M53.7477 32.64C53.0438 32.64 52.3931 32.4693 51.7957 32.128C51.2197 31.7653 50.7504 31.296 50.3877 30.72C50.0464 30.1227 49.8758 29.472 49.8758 28.768V8H52.4997V28.768C52.4997 29.1093 52.6171 29.408 52.8517 29.664C53.1077 29.8987 53.4064 30.016 53.7477 30.016H56.8838V32.64H53.7477Z" fill="#0A0909"/>
<path d="M63.0915 32.64C62.3875 32.64 61.7368 32.4693 61.1395 32.128C60.5635 31.7653 60.0942 31.296 59.7315 30.72C59.3902 30.1227 59.2195 29.472 59.2195 28.768V22.048H75.4755V17.952C75.4755 17.6107 75.3475 17.3227 75.0915 17.088C74.8568 16.832 74.5688 16.704 74.2275 16.704H59.2195V14.08H74.2275C74.9528 14.08 75.6035 14.2613 76.1795 14.624C76.7768 14.9653 77.2462 15.4347 77.5875 16.032C77.9502 16.608 78.1315 17.248 78.1315 17.952V32.64H63.0915ZM63.0915 30.016H75.4755V24.672H61.8435V28.768C61.8435 29.1093 61.9608 29.408 62.1955 29.664C62.4515 29.8987 62.7502 30.016 63.0915 30.016Z" fill="#0A0909"/>
<path d="M81.282 32.64V17.952C81.282 17.248 81.4527 16.608 81.794 16.032C82.1567 15.4347 82.626 14.9653 83.202 14.624C83.7993 14.2613 84.45 14.08 85.154 14.08H95.586V16.704H85.154C84.8127 16.704 84.514 16.832 84.258 17.088C84.0233 17.3227 83.906 17.6107 83.906 17.952V32.64H81.282Z" fill="#0A0909"/>
<path d="M97.4648 32.6801V31.7841L106.361 21.1601L97.4648 10.5361V9.64014H101.753L108.921 18.1201L116.057 9.64014H120.345V10.5361L111.417 21.1601L120.345 31.7521V32.6801H116.057L108.889 24.2001L101.753 32.6801H97.4648Z" fill="url(#paint0_linear_4349_2010)"/>
<defs>
<linearGradient id="paint0_linear_4349_2010" x1="97.4648" y1="21.1601" x2="120.345" y2="21.1601" gradientUnits="userSpaceOnUse">
<stop stop-color="#FF5F68"/>
<stop offset="1" stop-color="#AE4BCE"/>
</linearGradient>
</defs>
</svg>
